<?xml version="1.0" encoding="UTF-8" standalone="no"?>
<!-- Created with Inkscape (http://www.inkscape.org/) -->

<svg
   version="1.1"
   id="svg1"
   width="377.95334"
   height="377.95334"
   viewBox="0 0 377.95334 377.95334"
   sodipodi:docname="6722bd0d9797fa4f62aa36c5d5e7fbf9.eps"
   xmlns:inkscape="http://www.inkscape.org/namespaces/inkscape"
   xmlns:sodipodi="http://sodipodi.sourceforge.net/DTD/sodipodi-0.dtd"
   xmlns="http://www.w3.org/2000/svg"
   xmlns:svg="http://www.w3.org/2000/svg">
  <defs
     id="defs1" />
  <sodipodi:namedview
     id="namedview1"
     pagecolor="#ffffff"
     bordercolor="#000000"
     borderopacity="0.25"
     inkscape:showpageshadow="2"
     inkscape:pageopacity="0.0"
     inkscape:pagecheckerboard="0"
     inkscape:deskcolor="#d1d1d1">
    <inkscape:page
       x="0"
       y="0.0066538844"
       inkscape:label="1"
       id="page1"
       width="377.94666"
       height="377.94666"
       margin="0"
       bleed="0" />
  </sodipodi:namedview>
  <g
     id="g1"
     inkscape:groupmode="layer"
     inkscape:label="1"
     transform="translate(0,0.00665388)">
    <g
       id="group-R5">
      <path
         id="path2"
         d="M 2834.65,0 H 0 V 2834.65 H 2834.65 V 0"
         style="fill:#313368;fill-opacity:1;fill-rule:nonzero;stroke:none"
         transform="matrix(0.13333333,0,0,-0.13333333,0,377.94667)" />
      <path
         id="path3"
         d="m 918.113,2163.71 c -0.793,2.15 -1.613,4.65 -2.461,7.48 -0.851,2.83 -1.558,6.05 -2.125,9.67 h -0.679 c -0.676,-3.62 -1.442,-6.84 -2.289,-9.67 -0.848,-2.83 -1.676,-5.33 -2.465,-7.48 l -39.391,-108.32 h 89.141 z m 74.2,-200.85 -26.829,71.99 H 861.063 l -26.149,-71.99 h -25.129 l 92.707,243.47 h 22.754 l 92.194,-243.47 h -25.127"
         style="fill:#ffffff;fill-opacity:1;fill-rule:nonzero;stroke:none"
         transform="matrix(0.13333333,0,0,-0.13333333,0,377.94667)" />
      <path
         id="path4"
         d="m 1053.95,1998.51 c 4.08,-3.06 8.58,-5.8 13.5,-8.23 4.93,-2.44 9.96,-4.48 15.12,-6.12 5.14,-1.64 10.32,-2.89 15.53,-3.73 5.2,-0.86 10.19,-1.28 14.94,-1.28 18.45,0 32.26,3.57 41.43,10.7 9.17,7.13 13.75,17.37 13.75,30.73 0,6.46 -1.07,12.08 -3.22,16.9 -2.16,4.81 -5.5,9.3 -10.02,13.49 -4.53,4.19 -10.25,8.35 -17.15,12.48 -6.91,4.13 -15.05,8.8 -24.45,14.01 -10.41,5.66 -19.33,11.01 -26.74,16.05 -7.41,5.03 -13.47,10.19 -18.17,15.45 -4.7,5.26 -8.15,10.95 -10.36,17.06 -2.2,6.11 -3.31,13.08 -3.31,20.89 0,9.84 2.1,18.67 6.29,26.48 4.18,7.82 9.84,14.47 16.97,19.95 7.14,5.49 15.48,9.71 25.05,12.65 9.56,2.94 19.78,4.41 30.65,4.41 19.12,0 35.14,-2.65 48.05,-7.97 v -24.97 c -14.38,8.27 -31.25,12.4 -50.6,12.4 -7.25,0 -14.07,-0.87 -20.46,-2.63 -6.4,-1.76 -12,-4.33 -16.81,-7.72 -4.81,-3.4 -8.6,-7.62 -11.37,-12.65 -2.78,-5.04 -4.16,-10.9 -4.16,-17.58 0,-6.34 0.93,-11.8 2.8,-16.39 1.86,-4.57 4.86,-8.9 9,-12.98 4.12,-4.07 9.56,-8.13 16.3,-12.14 6.73,-4.02 14.96,-8.63 24.7,-13.84 10.19,-5.43 19.07,-10.72 26.66,-15.88 7.58,-5.15 13.89,-10.52 18.93,-16.12 5.03,-5.61 8.8,-11.55 11.29,-17.83 2.49,-6.28 3.73,-13.28 3.73,-20.97 0,-10.65 -1.98,-20.01 -5.94,-28.11 -3.96,-8.08 -9.51,-14.79 -16.64,-20.11 -7.13,-5.32 -15.62,-9.34 -25.47,-12.05 -9.84,-2.72 -20.66,-4.09 -32.43,-4.09 -3.85,0 -8.43,0.33 -13.75,0.94 -5.32,0.63 -10.7,1.53 -16.13,2.72 -5.43,1.19 -10.61,2.6 -15.54,4.25 -4.92,1.64 -8.91,3.41 -11.97,5.34 v 26.49"
         style="fill:#ffffff;fill-opacity:1;fill-rule:nonzero;stroke:none"
         transform="matrix(0.13333333,0,0,-0.13333333,0,377.94667)" />
      <path
         id="path5"
         d="m 1272.49,2185.62 v -107.3 h 32.25 c 20.95,0 36.85,4.86 47.72,14.59 10.86,9.74 16.3,23.49 16.3,41.27 0,34.29 -20.04,51.44 -60.11,51.44 z m 0,-128.03 v -94.73 h -22.59 v 243.47 h 62.83 c 12.78,0 24.11,-1.58 33.95,-4.76 9.85,-3.16 18.17,-7.75 24.96,-13.75 6.79,-6 11.95,-13.35 15.45,-22.06 3.51,-8.72 5.27,-18.69 5.27,-29.88 0,-11.33 -1.99,-21.77 -5.95,-31.33 -3.96,-9.57 -9.65,-17.84 -17.06,-24.8 -7.41,-6.95 -16.44,-12.39 -27.08,-16.3 -10.64,-3.9 -22.7,-5.86 -36.16,-5.86 h -33.62"
         style="fill:#ffffff;fill-opacity:1;fill-rule:nonzero;stroke:none"
         transform="matrix(0.13333333,0,0,-0.13333333,0,377.94667)" />
      <path
         id="path6"
         d="m 1422.42,1959.46 c -4.53,0 -8.38,1.58 -11.54,4.75 -3.18,3.17 -4.76,7.02 -4.76,11.55 0,4.63 1.55,8.54 4.67,11.72 3.11,3.16 6.99,4.75 11.63,4.75 2.26,0 4.38,-0.43 6.37,-1.28 1.97,-0.85 3.7,-1.98 5.18,-3.4 1.47,-1.41 2.65,-3.13 3.56,-5.17 0.9,-2.03 1.36,-4.24 1.36,-6.62 0,-2.27 -0.46,-4.39 -1.36,-6.37 -0.91,-1.98 -2.09,-3.71 -3.56,-5.18 -1.48,-1.47 -3.21,-2.64 -5.18,-3.48 -1.99,-0.85 -4.11,-1.27 -6.37,-1.27"
         style="fill:#ffffff;fill-opacity:1;fill-rule:nonzero;stroke:none"
         transform="matrix(0.13333333,0,0,-0.13333333,0,377.94667)" />
      <path
         id="path7"
         d="m 1664.5,1962.86 -135.15,195.43 c -1.7,2.48 -3.37,5.03 -5.01,7.63 -1.64,2.6 -2.97,5.15 -3.99,7.64 h -0.85 c 0.23,-2.03 0.43,-4.86 0.59,-8.49 0.18,-3.62 0.26,-8.14 0.26,-13.58 v -188.63 h -22.58 v 243.47 h 24.96 l 132.95,-193.04 c 2.03,-3.06 3.87,-5.92 5.51,-8.58 1.64,-2.66 3.14,-5.12 4.5,-7.39 h 0.85 c -0.45,3.74 -0.79,7.92 -1.02,12.57 -0.22,4.63 -0.34,9.78 -0.34,15.45 v 180.99 h 22.76 v -243.47 h -23.44"
         style="fill:#ffffff;fill-opacity:1;fill-rule:nonzero;stroke:none"
         transform="matrix(0.13333333,0,0,-0.13333333,0,377.94667)" />
      <path
         id="path8"
         d="m 1756.66,1962.86 v 243.47 h 118.68 v -20.71 h -96.09 v -89.31 h 88.97 v -20.38 h -88.97 v -92.53 h 101.53 v -20.54 h -124.12"
         style="fill:#ffffff;fill-opacity:1;fill-rule:nonzero;stroke:none"
         transform="matrix(0.13333333,0,0,-0.13333333,0,377.94667)" />
      <path
         id="path9"
         d="m 2003.58,2185.62 v -222.76 h -22.59 v 222.76 h -70.12 v 20.71 h 163 v -20.71 h -70.29"
         style="fill:#ffffff;fill-opacity:1;fill-rule:nonzero;stroke:none"
         transform="matrix(0.13333333,0,0,-0.13333333,0,377.94667)" />
      <path
         id="path10"
         d="m 1786.03,1417.83 c -15.46,11.39 -35.34,17.06 -59.93,17.06 -17.56,0 -33.04,-3.37 -46.41,-10.1 -13.49,-6.67 -25.23,-15.73 -35.39,-27.06 -10.17,-11.39 -18.83,-24.59 -25.82,-39.49 -7.18,-14.99 -12.89,-30.67 -17.1,-46.82 -4.23,-16.16 -7.44,-32.49 -9.26,-49.05 -1.86,-16.54 -2.97,-32.29 -2.97,-47.04 V 956.551 h -65.51 v 529.009 h 65.51 v -113.12 h 2.15 c 6.23,19.22 14.06,36.54 23.54,51.86 9.46,15.35 20.38,28.26 32.82,38.78 12.41,10.48 25.87,18.51 40.53,24.03 14.55,5.47 30.08,8.24 46.15,8.24 10.79,0 20.33,-0.71 28.75,-2.09 8.41,-1.37 16.08,-3.41 22.94,-6.15 v -69.28"
         style="fill:#ffffff;fill-opacity:1;fill-rule:nonzero;stroke:none"
         transform="matrix(0.13333333,0,0,-0.13333333,0,377.94667)" />
      <path
         id="path11"
         d="m 2224.41,1267.02 c -1.02,55.06 -14.19,97.8 -39.35,128.12 -25.05,30.31 -60.04,45.46 -104.82,45.46 -22.34,0 -43.07,-3.94 -62.3,-11.87 -19.09,-7.99 -35.85,-19.44 -50.29,-34.37 -14.5,-15.01 -26.4,-33.22 -35.88,-54.79 -9.54,-21.48 -16.14,-45.66 -19.9,-72.55 z m -314.1,-57.84 c 0.27,-32.38 4.57,-61.48 12.94,-87.31 8.21,-25.86 20.11,-47.79 35.59,-65.61 15.52,-17.96 34.39,-31.65 56.58,-41.08 22.24,-9.48 47.26,-14.16 75.12,-14.16 59.68,0 115.93,20.78 168.95,62.43 v -65.059 c -50.6,-36.192 -111.86,-54.243 -183.92,-54.243 -35.39,0 -67.72,6.204 -96.6,18.602 -28.95,12.379 -53.53,30.34 -73.79,53.98 -20.36,23.58 -36.06,52.57 -47.02,87.03 -11.07,34.41 -16.5,73.66 -16.5,117.82 0,39.59 5.91,76.29 17.94,110.02 12.14,33.77 28.88,62.94 50.23,87.52 21.3,24.71 46.64,43.96 75.87,57.91 29.3,13.91 61.34,20.89 96.02,20.89 34.24,0 64.27,-5.96 90.54,-17.85 26.17,-11.88 48.14,-28.84 65.77,-50.85 17.7,-22.06 31.41,-48.95 40.59,-80.57 9.35,-31.71 13.98,-67.15 13.98,-106.43 v -33.04 h -382.29"
         style="fill:#ffffff;fill-opacity:1;fill-rule:nonzero;stroke:none"
         transform="matrix(0.13333333,0,0,-0.13333333,0,377.94667)" />
      <path
         id="path12"
         d="m 773.516,872.91 c -99.547,99.57 -147.262,231.28 -144.559,362.4 -2.703,136.06 45.012,260.89 144.559,360.46 195.39,195.32 511.704,194.12 707.054,-1.26 l 42.03,43.65 c -109.51,109.5 -254.12,165.06 -397.98,165.06 -143.796,0 -287.636,-53.76 -397.147,-163.25 -110.938,-110.94 -165.442,-268.6 -163.981,-404.66 -1.461,-147.6 53.043,-295.662 163.981,-406.599 109.511,-109.492 253.351,-164.223 397.147,-164.223 143.86,0 288.47,55.082 397.98,164.571 l -42.03,43.16 C 1285.22,676.852 968.906,677.578 773.516,872.91"
         style="fill:#ffffff;fill-opacity:1;fill-rule:nonzero;stroke:none"
         transform="matrix(0.13333333,0,0,-0.13333333,0,377.94667)" />
      <path
         id="path13"
         d="m 1118.66,1033.11 c -27.97,0 -53.04,4.74 -75.27,14.04 -22.22,9.31 -41.22,22.55 -56.831,39.56 -15.766,17.01 -27.684,37.47 -36.032,61.25 -8.347,23.79 -12.601,50.19 -12.601,79.17 0,31.39 4.429,59.47 13.289,84.34 8.836,24.73 21.371,45.73 37.691,63.09 16.304,17.32 36.054,30.43 59.084,39.55 23.08,9.08 48.79,13.58 77.29,13.58 27.24,0 51.8,-4.45 73.61,-13.4 21.89,-8.99 40.36,-21.88 55.55,-38.84 15.21,-16.92 26.88,-37.56 35.05,-61.84 8.02,-24.27 12.08,-51.9 12.08,-82.78 0,-29.47 -4.23,-56.27 -12.65,-80.39 -8.48,-24.22 -20.55,-45.09 -36.3,-62.45 -15.7,-17.41 -34.79,-30.89 -57.36,-40.41 -22.63,-9.64 -48.07,-14.47 -76.6,-14.47"
         style="fill:#4cc5e2;fill-opacity:1;fill-rule:nonzero;stroke:none"
         transform="matrix(0.13333333,0,0,-0.13333333,0,377.94667)" />
    </g>
  </g>
</svg>
